<svg width="28" height="28" viewBox="0 0 28 28" fill="none" xmlns="http://www.w3.org/2000/svg">
<path fill-rule="evenodd" clip-rule="evenodd" d="M26 14C26 20.6279 20.6279 26 14 26C7.37211 26 2 20.6279 2 14C2 7.37211 7.37211 2 14 2C20.6279 2 26 7.37211 26 14Z" fill="white" stroke="#22AD01" stroke-width="2.5" stroke-linecap="round" stroke-linejoin="round"/>
<path d="M17.1996 15.468C17.1996 12.3 12.9036 13.188 12.9036 12.024C12.9036 11.628 13.2396 11.388 13.7916 11.388C14.4636 11.388 14.8476 11.82 14.8356 12.372H16.9356C16.9356 11.136 16.2996 9.96 14.8716 9.6V8.16H13.0236V9.576C11.7756 9.864 10.9236 10.812 10.9236 12.036C10.9236 15.108 15.1956 14.244 15.1956 15.468C15.1956 15.924 14.7516 16.212 14.0796 16.212C13.3596 16.212 12.8556 15.804 12.8556 15.168H10.8516C10.8516 16.524 11.7276 17.604 13.0236 17.976V19.44H14.8716V18.048C16.2516 17.76 17.1996 16.764 17.1996 15.468Z" fill="#22AD01"/>
</svg>
